<!DOCTYPE svg PUBLIC "-//W3C//DTD SVG 1.1//EN" "http://www.w3.org/Graphics/SVG/1.1/DTD/svg11.dtd">
<!-- Uploaded to: SVG Repo, www.svgrepo.com, Transformed by: SVG Repo Mixer Tools -->
<svg width="800px" height="800px" viewBox="0 0 24 24" fill="none" xmlns="http://www.w3.org/2000/svg">
<g id="SVGRepo_bgCarrier" stroke-width="0"/>
<g id="SVGRepo_tracerCarrier" stroke-linecap="round" stroke-linejoin="round"/>
<g id="SVGRepo_iconCarrier"> <path d="M7 11H7.01M12 11H12.01M9.5 11H9.51M15 10C15 13.3137 16.3431 16 18 16C19.6569 16 21 13.3137 21 10C21 6.68629 19.6569 4 18 4M15 10C15 6.68629 16.3431 4 18 4M15 10V14C15 15.8441 14.4749 18.7262 14 20H3C3.47493 18.7262 4 15.8441 4 14V10C4 6.68629 5.34315 4 7 4H18" stroke="#9E9E9E" stroke-width="2" stroke-linecap="round" stroke-linejoin="round"/> </g>
</svg>