<!DOCTYPE svg PUBLIC "-//W3C//DTD SVG 1.1//EN" "http://www.w3.org/Graphics/SVG/1.1/DTD/svg11.dtd">
<!-- Uploaded to: SVG Repo, www.svgrepo.com, Transformed by: SVG Repo Mixer Tools -->
<svg fill="#9E9E9E" width="800px" height="800px" viewBox="0 0 24 24" xmlns="http://www.w3.org/2000/svg">
<g id="SVGRepo_bgCarrier" stroke-width="0"/>
<g id="SVGRepo_tracerCarrier" stroke-linecap="round" stroke-linejoin="round"/>
<g id="SVGRepo_iconCarrier">
<path d="M22,3H2A1,1,0,0,0,1,4V9a1,1,0,0,0,1,1H3V20a1,1,0,0,0,1,1H20a1,1,0,0,0,1-1V10h1a1,1,0,0,0,1-1V4A1,1,0,0,0,22,3ZM19,19H5V10H19ZM21,8H3V5H21ZM7,13a1,1,0,0,1,1-1h8a1,1,0,0,1,0,2H8A1,1,0,0,1,7,13Z"/>
</g>
</svg>